<svg xmlns="http://www.w3.org/2000/svg" xmlns:xlink="http://www.w3.org/1999/xlink" width="160" zoomAndPan="magnify" viewBox="0 0 120 119.999999" height="160" preserveAspectRatio="xMidYMid meet" version="1.0"><defs><clipPath id="3886f9905b"><path d="M 7.398438 7.398438 L 112.398438 7.398438 L 112.398438 112.398438 L 7.398438 112.398438 Z M 7.398438 7.398438 " clip-rule="nonzero"/></clipPath></defs><rect x="-12" width="144" fill="#ffffff" y="-12" height="143.999998" fill-opacity="1"/><rect x="-12" width="144" fill="#ffffff" y="-12" height="143.999998" fill-opacity="1"/><path fill="#163f6f" d="M 36.359375 44.605469 C 36.359375 42.878906 37.058594 41.316406 38.191406 40.191406 C 39.320312 39.058594 40.882812 38.359375 42.605469 38.359375 L 42.746094 38.359375 C 43.289062 38.359375 43.726562 38.796875 43.726562 39.339844 L 43.726562 40.019531 C 43.726562 40.121094 43.730469 40.21875 43.738281 40.3125 C 43.886719 42.050781 45.347656 43.417969 47.121094 43.417969 L 49.285156 43.417969 C 51.058594 43.417969 52.519531 42.050781 52.667969 40.3125 C 52.675781 40.21875 52.679688 40.121094 52.679688 40.019531 L 52.679688 39.339844 C 52.679688 38.796875 53.121094 38.359375 53.660156 38.359375 L 65.433594 38.359375 C 65.976562 38.359375 66.414062 38.796875 66.414062 39.339844 L 66.414062 40.019531 C 66.414062 40.121094 66.417969 40.21875 66.429688 40.3125 C 66.574219 42.050781 68.035156 43.417969 69.808594 43.417969 L 71.972656 43.417969 C 73.746094 43.417969 75.207031 42.050781 75.355469 40.3125 C 75.363281 40.21875 75.367188 40.121094 75.367188 40.019531 L 75.367188 39.339844 C 75.367188 38.796875 75.808594 38.359375 76.347656 38.359375 L 76.488281 38.359375 C 79.9375 38.359375 82.734375 41.15625 82.734375 44.609375 C 82.734375 44.878906 82.625 45.125 82.449219 45.300781 C 82.273438 45.476562 82.027344 45.585938 81.753906 45.585938 L 37.339844 45.585938 C 36.796875 45.585938 36.359375 45.148438 36.359375 44.605469 Z M 36.359375 44.605469 " fill-opacity="1" fill-rule="nonzero"/><g clip-path="url(#3886f9905b)"><path fill="#163f6f" d="M 103.617188 30.59375 C 103.027344 29.71875 102.410156 28.863281 101.769531 28.027344 C 100.585938 26.484375 98.316406 26.335938 96.941406 27.710938 L 96.9375 27.710938 C 95.800781 28.851562 95.671875 30.660156 96.652344 31.941406 C 97.21875 32.675781 97.757812 33.425781 98.277344 34.191406 C 99.941406 36.660156 101.375 39.296875 102.53125 42.035156 C 104.933594 47.714844 106.15625 53.75 106.160156 59.96875 C 106.160156 60.785156 105.519531 61.46875 104.703125 61.484375 C 103.871094 61.5 103.191406 60.832031 103.191406 60 C 103.191406 54.171875 102.050781 48.515625 99.796875 43.191406 C 98.050781 39.058594 95.695312 35.261719 92.777344 31.871094 C 92.066406 31.042969 91.320312 30.242188 90.542969 29.460938 C 89.761719 28.683594 88.957031 27.9375 88.128906 27.222656 C 84.738281 24.308594 80.945312 21.953125 76.8125 20.207031 C 71.488281 17.953125 65.832031 16.8125 60 16.8125 C 51.476562 16.8125 43.230469 19.292969 36.15625 23.984375 C 32.742188 26.25 29.667969 28.984375 27.019531 32.113281 C 24.355469 35.261719 22.160156 38.761719 20.496094 42.519531 C 20.164062 43.269531 19.285156 43.605469 18.535156 43.273438 C 17.785156 42.941406 17.449219 42.066406 17.78125 41.316406 C 19.558594 37.300781 21.90625 33.558594 24.753906 30.195312 C 27.585938 26.851562 30.867188 23.929688 34.511719 21.511719 C 42.074219 16.496094 50.890625 13.84375 60 13.84375 C 66.230469 13.84375 72.277344 15.0625 77.96875 17.46875 C 80.703125 18.628906 83.34375 20.058594 85.808594 21.726562 C 86.574219 22.242188 87.328125 22.785156 88.0625 23.347656 C 89.339844 24.328125 91.152344 24.203125 92.289062 23.0625 C 93.667969 21.6875 93.515625 19.414062 91.972656 18.230469 C 83.113281 11.4375 72.027344 7.402344 60 7.402344 C 30.953125 7.402344 7.402344 30.953125 7.402344 60 C 7.402344 72.027344 11.4375 83.113281 18.230469 91.972656 C 19.414062 93.515625 21.6875 93.667969 23.0625 92.289062 C 23.6875 91.667969 24.007812 90.839844 24.007812 90.007812 C 24.007812 89.328125 23.792969 88.640625 23.347656 88.0625 C 22.785156 87.328125 22.242188 86.578125 21.726562 85.8125 C 20.058594 83.34375 18.625 80.703125 17.46875 77.96875 C 15.066406 72.289062 13.847656 66.253906 13.84375 60.035156 C 13.839844 59.21875 14.484375 58.53125 15.296875 58.519531 C 16.128906 58.5 16.8125 59.171875 16.8125 60 C 16.8125 65.832031 17.953125 71.488281 20.203125 76.8125 C 21.953125 80.945312 24.308594 84.742188 27.222656 88.128906 C 27.9375 88.957031 28.683594 89.761719 29.460938 90.542969 C 30.238281 91.320312 31.042969 92.066406 31.871094 92.777344 C 35.261719 95.695312 39.058594 98.050781 43.191406 99.796875 C 48.515625 102.050781 54.167969 103.191406 60 103.191406 C 68.65625 103.191406 77.007812 100.640625 84.148438 95.816406 C 87.59375 93.488281 90.679688 90.683594 93.328125 87.472656 C 95.996094 84.242188 98.171875 80.65625 99.796875 76.8125 C 100.117188 76.058594 100.988281 75.703125 101.742188 76.023438 C 102.5 76.34375 102.851562 77.214844 102.53125 77.96875 C 100.796875 82.078125 98.46875 85.910156 95.621094 89.363281 C 92.789062 92.792969 89.488281 95.789062 85.808594 98.277344 C 78.175781 103.433594 69.25 106.160156 60 106.160156 C 53.769531 106.160156 47.726562 104.941406 42.035156 102.53125 C 39.296875 101.375 36.660156 99.945312 34.191406 98.277344 C 33.425781 97.761719 32.675781 97.21875 31.941406 96.65625 C 30.660156 95.675781 28.851562 95.800781 27.710938 96.941406 C 27.078125 97.574219 26.769531 98.394531 26.769531 99.214844 C 26.769531 100.175781 27.195312 101.132812 28.03125 101.773438 C 36.890625 108.566406 47.976562 112.601562 60 112.601562 C 89.050781 112.601562 112.601562 89.050781 112.601562 60 C 112.601562 49.105469 109.289062 38.988281 103.617188 30.59375 Z M 69.671875 35.121094 C 69.671875 34.835938 69.902344 34.605469 70.1875 34.605469 L 71.597656 34.605469 C 71.882812 34.605469 72.113281 34.835938 72.113281 35.121094 L 72.113281 39.640625 C 72.113281 39.929688 71.882812 40.160156 71.597656 40.160156 L 70.1875 40.160156 C 69.902344 40.160156 69.671875 39.929688 69.671875 39.640625 Z M 46.984375 35.121094 C 46.984375 34.835938 47.214844 34.605469 47.5 34.605469 L 48.910156 34.605469 C 49.195312 34.605469 49.425781 34.835938 49.425781 35.121094 L 49.425781 39.640625 C 49.425781 39.929688 49.195312 40.160156 48.910156 40.160156 L 47.5 40.160156 C 47.214844 40.160156 46.984375 39.929688 46.984375 39.640625 Z M 53.820312 81.355469 L 42.605469 81.355469 C 38.078125 81.355469 34.40625 77.683594 34.40625 73.152344 L 34.40625 44.605469 C 34.40625 40.078125 38.078125 36.40625 42.605469 36.40625 L 44.699219 36.40625 C 45.242188 36.40625 45.679688 36.84375 45.679688 37.386719 L 45.679688 40.019531 C 45.679688 40.121094 45.691406 40.21875 45.710938 40.3125 C 45.84375 40.96875 46.425781 41.464844 47.121094 41.464844 L 49.285156 41.464844 C 49.980469 41.464844 50.5625 40.96875 50.699219 40.3125 C 50.71875 40.21875 50.726562 40.121094 50.726562 40.019531 L 50.726562 37.386719 C 50.726562 36.84375 51.164062 36.40625 51.707031 36.40625 L 67.386719 36.40625 C 67.929688 36.40625 68.367188 36.84375 68.367188 37.386719 L 68.367188 40.019531 C 68.367188 40.121094 68.378906 40.21875 68.398438 40.3125 C 68.535156 40.96875 69.113281 41.464844 69.808594 41.464844 L 71.972656 41.464844 C 72.667969 41.464844 73.25 40.96875 73.386719 40.3125 C 73.40625 40.21875 73.414062 40.121094 73.414062 40.019531 L 73.414062 37.386719 C 73.414062 36.84375 73.855469 36.40625 74.394531 36.40625 L 76.488281 36.40625 C 81.019531 36.40625 84.691406 40.078125 84.691406 44.609375 L 84.691406 57.15625 C 84.691406 57.4375 84.324219 57.550781 84.167969 57.320312 C 83.785156 56.769531 83.375 56.238281 82.941406 55.730469 C 82.8125 55.578125 82.734375 55.382812 82.734375 55.179688 L 82.734375 48.523438 C 82.734375 47.980469 82.296875 47.542969 81.753906 47.542969 L 37.339844 47.542969 C 36.796875 47.542969 36.359375 47.980469 36.359375 48.519531 L 36.359375 73.152344 C 36.359375 76.605469 39.15625 79.402344 42.605469 79.402344 L 52.429688 79.402344 C 52.6875 79.402344 52.933594 79.523438 53.089844 79.730469 C 53.390625 80.125 53.703125 80.507812 54.03125 80.875 C 54.195312 81.0625 54.066406 81.355469 53.820312 81.355469 Z M 57.398438 52.488281 C 55.476562 53.835938 53.8125 55.527344 52.496094 57.472656 C 52.433594 57.566406 52.3125 57.609375 52.207031 57.566406 C 51.332031 57.238281 50.710938 56.394531 50.710938 55.40625 L 50.710938 53.734375 C 50.710938 52.457031 51.746094 51.421875 53.023438 51.421875 L 55.789062 51.421875 C 56.429688 51.421875 57.011719 51.683594 57.433594 52.105469 C 57.542969 52.21875 57.527344 52.398438 57.398438 52.488281 Z M 45.503906 66.621094 L 42.742188 66.621094 C 41.464844 66.621094 40.429688 65.585938 40.429688 64.308594 L 40.429688 62.636719 C 40.429688 61.359375 41.464844 60.324219 42.742188 60.324219 L 45.503906 60.324219 C 46.78125 60.324219 47.816406 61.359375 47.816406 62.636719 L 47.816406 64.308594 C 47.816406 65.585938 46.78125 66.621094 45.503906 66.621094 Z M 47.816406 71.539062 L 47.816406 73.210938 C 47.816406 74.488281 46.78125 75.523438 45.503906 75.523438 L 42.742188 75.523438 C 41.464844 75.523438 40.429688 74.488281 40.429688 73.207031 L 40.429688 71.539062 C 40.429688 70.261719 41.464844 69.226562 42.742188 69.226562 L 45.503906 69.226562 C 46.78125 69.226562 47.816406 70.261719 47.816406 71.539062 Z M 45.503906 57.71875 L 42.742188 57.71875 C 41.464844 57.71875 40.429688 56.683594 40.429688 55.40625 L 40.429688 53.734375 C 40.429688 52.457031 41.464844 51.421875 42.742188 51.421875 L 45.503906 51.421875 C 46.78125 51.421875 47.816406 52.457031 47.816406 53.734375 L 47.816406 55.40625 C 47.816406 56.679688 46.78125 57.71875 45.503906 57.71875 Z M 84.664062 73.785156 C 83.835938 76.199219 82.484375 78.371094 80.742188 80.167969 C 77.613281 83.394531 73.234375 85.398438 68.382812 85.398438 C 64.160156 85.398438 60.292969 83.878906 57.300781 81.355469 C 56.589844 80.757812 55.929688 80.105469 55.328125 79.402344 C 54.320312 78.230469 53.46875 76.921875 52.800781 75.511719 C 52.003906 73.820312 51.476562 71.972656 51.269531 70.035156 C 51.203125 69.425781 51.171875 68.808594 51.171875 68.1875 C 51.171875 67.402344 51.222656 66.632812 51.324219 65.875 C 51.589844 63.898438 52.191406 62.03125 53.066406 60.324219 C 53.539062 59.40625 54.09375 58.53125 54.71875 57.71875 C 55.6875 56.457031 56.824219 55.332031 58.101562 54.382812 C 59.113281 53.625 60.210938 52.976562 61.378906 52.457031 C 62.363281 52.019531 63.390625 51.671875 64.460938 51.421875 C 65.722656 51.128906 67.035156 50.972656 68.382812 50.972656 C 69.917969 50.972656 71.410156 51.171875 72.828125 51.550781 C 74.964844 52.121094 76.941406 53.09375 78.667969 54.382812 C 80.257812 55.566406 81.636719 57.023438 82.734375 58.679688 C 83.550781 59.902344 84.207031 61.238281 84.691406 62.65625 C 85.277344 64.390625 85.597656 66.25 85.597656 68.1875 C 85.597656 70.121094 85.269531 72.03125 84.664062 73.785156 Z M 82.792969 67.210938 L 79.789062 67.210938 C 79.25 67.210938 78.8125 67.648438 78.8125 68.1875 C 78.8125 68.726562 79.25 69.164062 79.789062 69.164062 L 82.792969 69.164062 C 83.332031 69.164062 83.769531 68.726562 83.769531 68.1875 C 83.769531 67.648438 83.332031 67.210938 82.792969 67.210938 Z M 77.140625 75.5625 C 77.089844 75.511719 77.039062 75.46875 76.984375 75.433594 C 76.621094 75.195312 76.132812 75.222656 75.800781 75.523438 C 75.785156 75.535156 75.773438 75.546875 75.757812 75.5625 C 75.375 75.941406 75.375 76.558594 75.757812 76.941406 L 77.878906 79.066406 C 77.933594 79.117188 77.996094 79.164062 78.058594 79.203125 C 78.214844 79.300781 78.394531 79.351562 78.570312 79.351562 C 78.820312 79.351562 79.070312 79.253906 79.261719 79.066406 C 79.390625 78.9375 79.472656 78.78125 79.515625 78.621094 C 79.601562 78.296875 79.515625 77.9375 79.261719 77.683594 Z M 75.757812 60.8125 C 75.949219 61.003906 76.199219 61.097656 76.449219 61.097656 C 76.699219 61.097656 76.949219 61.003906 77.140625 60.8125 L 79.261719 58.6875 C 79.644531 58.308594 79.644531 57.691406 79.261719 57.308594 C 78.878906 56.925781 78.261719 56.925781 77.878906 57.308594 L 75.757812 59.429688 C 75.515625 59.671875 75.425781 60.011719 75.492188 60.324219 C 75.53125 60.503906 75.621094 60.671875 75.757812 60.8125 Z M 71.734375 70.15625 L 69.359375 67.78125 L 69.359375 61.136719 C 69.359375 60.59375 68.921875 60.15625 68.382812 60.15625 C 67.964844 60.15625 67.605469 60.421875 67.46875 60.796875 C 67.429688 60.902344 67.40625 61.015625 67.40625 61.136719 L 67.40625 68.1875 C 67.40625 68.265625 67.417969 68.34375 67.433594 68.417969 C 67.4375 68.429688 67.441406 68.441406 67.445312 68.453125 C 67.453125 68.476562 67.457031 68.5 67.464844 68.523438 C 67.472656 68.539062 67.476562 68.550781 67.484375 68.566406 C 67.492188 68.582031 67.5 68.601562 67.507812 68.617188 C 67.511719 68.628906 67.519531 68.640625 67.527344 68.652344 C 67.53125 68.664062 67.539062 68.679688 67.550781 68.691406 C 67.558594 68.707031 67.566406 68.71875 67.574219 68.730469 C 67.609375 68.78125 67.648438 68.832031 67.695312 68.875 L 71.25 72.433594 C 71.257812 72.441406 71.269531 72.453125 71.277344 72.460938 C 71.464844 72.632812 71.703125 72.722656 71.941406 72.722656 C 72.179688 72.722656 72.441406 72.625 72.632812 72.433594 C 73.015625 72.054688 73.015625 71.433594 72.632812 71.054688 Z M 68.382812 78.617188 C 67.910156 78.617188 67.511719 78.953125 67.425781 79.402344 C 67.414062 79.464844 67.40625 79.527344 67.40625 79.59375 L 67.40625 82.59375 C 67.40625 83.132812 67.84375 83.570312 68.382812 83.570312 C 68.921875 83.570312 69.359375 83.132812 69.359375 82.59375 L 69.359375 79.59375 C 69.359375 79.527344 69.355469 79.464844 69.34375 79.402344 C 69.253906 78.953125 68.859375 78.617188 68.382812 78.617188 Z M 68.382812 57.757812 C 68.921875 57.757812 69.359375 57.320312 69.359375 56.78125 L 69.359375 53.777344 C 69.359375 53.238281 68.921875 52.800781 68.382812 52.800781 C 68.320312 52.800781 68.253906 52.808594 68.195312 52.820312 C 67.746094 52.90625 67.40625 53.304688 67.40625 53.777344 L 67.40625 56.78125 C 67.40625 56.9375 67.445312 57.085938 67.511719 57.214844 C 67.667969 57.535156 68 57.757812 68.382812 57.757812 Z M 58.886719 57.308594 C 58.507812 56.925781 57.886719 56.925781 57.503906 57.308594 C 57.125 57.691406 57.125 58.308594 57.503906 58.6875 L 59.628906 60.8125 C 59.820312 61.003906 60.066406 61.097656 60.320312 61.097656 C 60.570312 61.097656 60.816406 61.003906 61.007812 60.8125 C 61.390625 60.429688 61.390625 59.8125 61.007812 59.429688 Z M 59.628906 75.5625 L 57.503906 77.683594 C 57.125 78.0625 57.125 78.683594 57.503906 79.066406 C 57.695312 79.253906 57.945312 79.351562 58.195312 79.351562 C 58.445312 79.351562 58.695312 79.253906 58.886719 79.066406 L 61.007812 76.941406 C 61.390625 76.558594 61.390625 75.941406 61.007812 75.5625 C 60.628906 75.179688 60.007812 75.179688 59.628906 75.5625 Z M 57.953125 68.1875 C 57.953125 67.648438 57.515625 67.210938 56.976562 67.210938 L 53.976562 67.210938 C 53.4375 67.210938 53 67.648438 53 68.1875 C 53 68.726562 53.4375 69.164062 53.976562 69.164062 L 56.976562 69.164062 C 57.515625 69.164062 57.953125 68.726562 57.953125 68.1875 Z M 57.953125 68.1875 " fill-opacity="1" fill-rule="nonzero"/></g></svg>